# xmcd
#
# Track frame offsets: 
#        150
#        12827
#        25760
#        39595
#        54485
#        66220
#        80725
#        91142
#        106562
#        117740
#        129820
#        142852
#        153095
#        169317
#        180665
#        192342
#        209250
#        224942
#        240740
#        251372
#        266120
#
# Disc length: 3758 seconds
#
# Revision: 2
# Processed by: cddbd v1.5.2PL0 Copyright (c) Steve Scherf et al.
# Submitted via: ExactAudioCopy v0.99pb4
#
DISCID=240eac15
DTITLE=Various Artist - Mad About The Boy - The Ladies Sing The Blues
DYEAR=1997
DGENRE=Blues
TTITLE0=Dinah Washington - Mad About The Boy
TTITLE1=Dionne Warwick - Walk On By
TTITLE2=Etta James - I Just Want To Make Love To You
TTITLE3=Peggy Lee - Fever
TTITLE4=Maxine Brown - Oh No Not My Baby
TTITLE5=Sarah Vaughan - Summertime
TTITLE6=Betty Everett - You're No Good
TTITLE7=Aretha Franklin - Until You Come Back To Me
TTITLE8=Anne Peebles - I Can't Stand The Rain
TTITLE9=Baby Washington - That's How Heartaches Are Made
TTITLE10=Billie Holiday - That Ole Devil Called Love
TTITLE11=Dinah Washington - Call Me Irresponsible
TTITLE12=Nina Simone - My Baby Just Cares For Me
TTITLE13=Barbara Lewis - Baby I'm Yours
TTITLE14=Etta James - I'd Rather Go Blind
TTITLE15=Millie Jackson - If Loving You Is Wrong
TTITLE16=Dorothy Moore - Misty Blue
TTITLE17=Aretha Franklin - What A Difference A Day Made
TTITLE18=Ruby Johnson - If I Ever Need Love (I Sure Do Need It Now)
TTITLE19=Billie Holiday - Lover Man (Oh, Where Can You Be?)
TTITLE20=Lorraine Ellison - Stay With Me Baby
EXTD=
EXTT0=
EXTT1=
EXTT2=
EXTT3=
EXTT4=
EXTT5=
EXTT6=
EXTT7=
EXTT8=
EXTT9=
EXTT10=
EXTT11=
EXTT12=
EXTT13=
EXTT14=
EXTT15=
EXTT16=
EXTT17=
EXTT18=
EXTT19=
EXTT20=
PLAYORDER=
